<svg xmlns="http://www.w3.org/2000/svg" version="1.1" xmlns:xlink="http://www.w3.org/1999/xlink" viewBox="0 0 200 200"><rect width="200" height="200" fill="url('#gradient')"></rect><defs><linearGradient id="gradient" gradientTransform="rotate(45 0.5 0.5)"><stop offset="0%" stop-color="#dee90b"></stop><stop offset="100%" stop-color="#d9e241"></stop></linearGradient></defs><g><g fill="#1b3855" transform="matrix(1.212472043152217,0,0,1.212472043152217,8.698121672271974,108.97463678827475)" stroke="#0e5278" stroke-width="0.2"><path d="M6.69-4.82L4.50-4.82L4.50 0L1.07 0L1.07-14.22L6.75-14.22Q8.38-14.22 9.63-13.62Q10.89-13.02 11.58-11.91Q12.27-10.80 12.27-9.39L12.27-9.39Q12.27-7.31 10.78-6.07Q9.29-4.82 6.69-4.82L6.69-4.82ZM4.50-11.57L4.50-7.47L6.75-7.47Q7.74-7.47 8.27-7.97Q8.79-8.47 8.79-9.38L8.79-9.38Q8.79-10.37 8.25-10.97Q7.71-11.56 6.79-11.57L6.79-11.57L4.50-11.57ZM18.93 0.20L18.93 0.20Q16.49 0.20 14.99-1.25Q13.49-2.71 13.49-5.03L13.49-5.03L13.49-5.30Q13.49-6.92 14.09-8.16Q14.69-9.40 15.84-10.08Q16.99-10.76 18.57-10.76L18.57-10.76Q20.80-10.76 22.09-9.38Q23.38-8.00 23.38-5.53L23.38-5.53L23.38-4.25L16.84-4.25Q17.01-3.36 17.61-2.85Q18.20-2.34 19.15-2.34L19.15-2.34Q20.71-2.34 21.59-3.44L21.59-3.44L23.10-1.66Q22.48-0.81 21.35-0.31Q20.22 0.20 18.93 0.20ZM18.55-8.22L18.55-8.22Q17.11-8.22 16.84-6.31L16.84-6.31L20.16-6.31L20.16-6.56Q20.18-7.35 19.76-7.79Q19.34-8.22 18.55-8.22ZM31.15-10.64L31.09-7.59L30.01-7.67Q28.46-7.67 28.02-6.69L28.02-6.69L28.02 0L24.73 0L24.73-10.57L27.81-10.57L27.92-9.21Q28.75-10.76 30.23-10.76L30.23-10.76Q30.76-10.76 31.15-10.64L31.15-10.64ZM37.81-2.97L37.81-2.97Q37.81-3.39 37.37-3.64Q36.93-3.90 35.70-4.17Q34.47-4.44 33.67-4.89Q32.87-5.33 32.45-5.97Q32.03-6.60 32.03-7.42L32.03-7.42Q32.03-8.88 33.23-9.82Q34.43-10.76 36.38-10.76L36.38-10.76Q38.47-10.76 39.74-9.81Q41.01-8.87 41.01-7.32L41.01-7.32L37.71-7.32Q37.71-8.59 36.37-8.59L36.37-8.59Q35.85-8.59 35.50-8.31Q35.15-8.02 35.15-7.59L35.15-7.59Q35.15-7.15 35.58-6.88Q36.01-6.60 36.95-6.43Q37.89-6.25 38.60-6.01L38.60-6.01Q40.99-5.19 40.99-3.07L40.99-3.07Q40.99-1.62 39.70-0.71Q38.42 0.20 36.38 0.20L36.38 0.20Q35.02 0.20 33.96-0.29Q32.89-0.78 32.29-1.62Q31.70-2.46 31.70-3.39L31.70-3.39L34.78-3.39Q34.79-2.66 35.26-2.32Q35.73-1.98 36.46-1.98L36.46-1.98Q37.14-1.98 37.48-2.26Q37.81-2.53 37.81-2.97ZM42.12-4.82L42.11-5.38Q42.11-6.96 42.72-8.20Q43.34-9.43 44.49-10.10Q45.64-10.76 47.20-10.76L47.20-10.76Q49.57-10.76 50.94-9.29Q52.30-7.82 52.30-5.29L52.30-5.29L52.30-5.18Q52.30-2.71 50.93-1.25Q49.56 0.20 47.22 0.20L47.22 0.20Q44.96 0.20 43.59-1.16Q42.23-2.51 42.12-4.82L42.12-4.82ZM45.41-5.77L45.40-5.18Q45.40-3.71 45.86-3.03Q46.32-2.34 47.22-2.34L47.22-2.34Q48.97-2.34 49.01-5.05L49.01-5.05L49.01-5.38Q49.01-8.22 47.20-8.22L47.20-8.22Q45.55-8.22 45.41-5.77L45.41-5.77ZM53.69-10.57L56.78-10.57L56.88-9.33Q57.98-10.76 59.90-10.76L59.90-10.76Q61.55-10.76 62.37-9.78Q63.18-8.79 63.21-6.81L63.21-6.81L63.21 0L59.91 0L59.91-6.67Q59.91-7.47 59.59-7.85Q59.27-8.22 58.42-8.22L58.42-8.22Q57.45-8.22 56.98-7.46L56.98-7.46L56.98 0L53.69 0L53.69-10.57ZM74.28 0L70.99 0Q70.81-0.32 70.67-0.95L70.67-0.95Q69.77 0.20 68.13 0.20L68.13 0.20Q66.64 0.20 65.60-0.71Q64.55-1.61 64.55-2.98L64.55-2.98Q64.55-4.70 65.82-5.58Q67.09-6.46 69.51-6.46L69.51-6.46L70.53-6.46L70.53-7.01Q70.53-8.47 69.27-8.47L69.27-8.47Q68.10-8.47 68.10-7.31L68.10-7.31L64.80-7.31Q64.80-8.85 66.11-9.80Q67.41-10.76 69.43-10.76Q71.46-10.76 72.63-9.78Q73.80-8.79 73.83-7.07L73.83-7.07L73.83-2.39Q73.85-0.94 74.28-0.17L74.28-0.17L74.28 0ZM68.93-2.15L68.93-2.15Q69.54-2.15 69.95-2.41Q70.35-2.68 70.53-3.01L70.53-3.01L70.53-4.70L69.57-4.70Q67.85-4.70 67.85-3.15L67.85-3.15Q67.85-2.71 68.15-2.43Q68.46-2.15 68.93-2.15ZM79.12-15L79.12 0L75.82 0L75.82-15L79.12-15ZM96.86-14.22L96.86-11.57L92.59-11.57L92.59 0L89.16 0L89.16-11.57L84.97-11.57L84.97-14.22L96.86-14.22ZM103.96-10.64L103.91-7.59L102.82-7.67Q101.27-7.67 100.83-6.69L100.83-6.69L100.83 0L97.54 0L97.54-10.57L100.63-10.57L100.73-9.21Q101.56-10.76 103.05-10.76L103.05-10.76Q103.57-10.76 103.96-10.64L103.96-10.64ZM114.04 0L110.75 0Q110.58-0.32 110.44-0.95L110.44-0.95Q109.53 0.20 107.90 0.20L107.90 0.20Q106.41 0.20 105.36-0.71Q104.32-1.61 104.32-2.98L104.32-2.98Q104.32-4.70 105.59-5.58Q106.86-6.46 109.28-6.46L109.28-6.46L110.29-6.46L110.29-7.01Q110.29-8.47 109.03-8.47L109.03-8.47Q107.86-8.47 107.86-7.31L107.86-7.31L104.57-7.31Q104.57-8.85 105.87-9.80Q107.18-10.76 109.20-10.76Q111.22-10.76 112.39-9.78Q113.56-8.79 113.59-7.07L113.59-7.07L113.59-2.39Q113.61-0.94 114.04-0.17L114.04-0.17L114.04 0ZM108.69-2.15L108.69-2.15Q109.31-2.15 109.71-2.41Q110.12-2.68 110.29-3.01L110.29-3.01L110.29-4.70L109.34-4.70Q107.62-4.70 107.62-3.15L107.62-3.15Q107.62-2.71 107.92-2.43Q108.22-2.15 108.69-2.15ZM118.89-10.57L118.89 0L115.59 0L115.59-10.57L118.89-10.57ZM115.39-13.29L115.39-13.29Q115.39-13.99 115.90-14.44Q116.41-14.89 117.22-14.89Q118.03-14.89 118.54-14.44Q119.04-13.99 119.04-13.29Q119.04-12.59 118.54-12.14Q118.03-11.69 117.22-11.69Q116.41-11.69 115.90-12.14Q115.39-12.59 115.39-13.29ZM120.85-10.57L123.94-10.57L124.04-9.33Q125.14-10.76 127.06-10.76L127.06-10.76Q128.71-10.76 129.53-9.78Q130.34-8.79 130.37-6.81L130.37-6.81L130.37 0L127.07 0L127.07-6.67Q127.07-7.47 126.75-7.85Q126.43-8.22 125.58-8.22L125.58-8.22Q124.61-8.22 124.14-7.46L124.14-7.46L124.14 0L120.85 0L120.85-10.57ZM137.30 0.20L137.30 0.20Q134.87 0.20 133.37-1.25Q131.87-2.71 131.87-5.03L131.87-5.03L131.87-5.30Q131.87-6.92 132.47-8.16Q133.07-9.40 134.22-10.08Q135.37-10.76 136.95-10.76L136.95-10.76Q139.18-10.76 140.47-9.38Q141.76-8.00 141.76-5.53L141.76-5.53L141.76-4.25L135.21-4.25Q135.39-3.36 135.99-2.85Q136.58-2.34 137.53-2.34L137.53-2.34Q139.09-2.34 139.97-3.44L139.97-3.44L141.47-1.66Q140.86-0.81 139.73-0.31Q138.60 0.20 137.30 0.20ZM136.93-8.22L136.93-8.22Q135.49-8.22 135.21-6.31L135.21-6.31L138.54-6.31L138.54-6.56Q138.55-7.35 138.13-7.79Q137.71-8.22 136.93-8.22ZM149.53-10.64L149.47-7.59L148.39-7.67Q146.84-7.67 146.40-6.69L146.40-6.69L146.40 0L143.11 0L143.11-10.57L146.19-10.57L146.30-9.21Q147.13-10.76 148.61-10.76L148.61-10.76Q149.14-10.76 149.53-10.64L149.53-10.64Z"></path></g></g></svg>